<svg width="578" height="324" viewBox="0 0 578 324" fill="none" xmlns="http://www.w3.org/2000/svg">
<g opacity="0.05">
<g clip-path="url(#clip0_307_2008)">
<mask id="mask0_307_2008" style="mask-type:alpha" maskUnits="userSpaceOnUse" x="0" y="34" width="577" height="252">
<rect y="34.5298" width="576.998" height="251.217" fill="url(#paint0_linear_307_2008)"/>
</mask>
<g mask="url(#mask0_307_2008)">
<path d="M504.681 67.5236L472.068 56.6292L337.757 57.0496L314.507 48.6974L294.835 56.8694L210.772 56.6392L177.463 41.366H129.031L121.54 56.6342H79.3285L0 182.963L88.3063 282.64H488.882L577.189 182.963L504.676 67.5186L504.681 67.5236ZM486.846 278.121H90.343L5.63487 182.503L81.8357 61.1531H124.367L131.854 45.8849H176.477L209.776 61.1531L295.73 61.3883L314.622 53.5365L336.971 61.5685L471.337 61.1481L501.708 71.2919L571.554 182.493L486.846 278.111V278.121Z" fill="url(#paint1_linear_307_2008)"/>
</g>
<path d="M571.559 182.503L486.845 278.115H90.3429L5.63472 182.503L81.8355 61.1527H124.367L131.854 45.8845H176.477L209.781 61.1527L295.73 61.3929L314.622 53.5411L336.971 61.573L471.337 61.1527L501.708 71.3015L571.559 182.503Z" fill="url(#paint2_linear_307_2008)"/>
<path d="M571.547 182.502L501.712 71.3013L471.331 61.1576L336.975 61.5679L314.626 53.536L295.724 61.3878L209.775 61.1576L176.476 45.8894H131.858L124.371 61.1576H81.8444L5.63858 182.502H56.5976L95.0058 211.052H157.21L166.523 182.502H206.872L216.145 142.108H225.348L237.779 136.693L235.172 164.107L269.542 182.502H571.547Z" fill="#4A357D"/>
<path d="M32.6231 167.585H76.0356L83.4971 153.272H64.2454L77.8672 129.392L100.186 121.265L107.238 107.753L85.9942 115.144L97.299 95.3223L90.6382 85.2586H103.044H118.968L123.757 76.0757H90.0928L32.6231 167.585Z" fill="white"/>
<path d="M141.162 60.802L115.96 112.226L146.517 130.362L158.507 136.557L140.361 146.411L127.555 179.785H107.002L128.981 128.976L112.562 119.157L81.5204 182.487L99.9313 196.134H146.386L169.401 125.553L137.949 108.243L154.879 69.1092H170.012L180.311 73.4379L165.743 80.2388L155.8 106.166L172.749 115.274L188.243 67.758L173.2 60.802H141.162Z" fill="white"/>
<path d="M197.816 76.0748L171.533 167.584H194.988L204.266 127.189H222.242L244.571 117.466L248.71 83.8665L231.475 76.0748H197.811H197.816ZM227.957 95.5866L224.354 115.529H206.949L213.9 85.2527H229.823L241.574 90.0318L227.957 95.5816V95.5866Z" fill="white"/>
<path d="M258.529 76.0748L250.962 155.639L273.281 167.584H316.694L310.924 83.8665L292.198 76.0748H258.534H258.529ZM292.513 104.229L293.073 153.266H273.822L276.379 85.2527H292.303L304.538 90.0318L292.518 104.229H292.513Z" fill="white"/>
<path d="M323.76 83.9015L332.843 167.584H356.298L349.587 127.189H367.563L376.25 167.584H399.71L389.186 128.975L375.379 123.13L386.049 117.466L374.764 76.0748H341.1L323.76 83.9015V83.9015ZM365.061 115.529H347.655L344.363 95.6917L330.781 90.0368L342.626 85.2577H358.55L365.061 115.534V115.529Z" fill="white"/>
<path d="M383.466 85.2577H399.145L427.124 167.584H450.584L421.819 95.2013L405.39 85.1476H433.254L429.221 76.0748H380.789L383.466 85.2577Z" fill="white"/>
<path d="M511.717 115.274L491.925 83.7614L468.905 76.0748H435.241L452.015 112.226L499.872 130.362L512.943 153.271H493.686L481.02 128.975L455.228 119.157L472.153 155.639L501.153 167.584H544.565L518.167 125.553L470.206 108.243L463.485 95.3514L445.825 85.2577H474.144L486.07 106.166L511.717 115.274Z" fill="white"/>
<path d="M315.411 65.1101C312.954 67.5072 310.171 69.7291 307.114 71.7458C310.457 73.7826 313.634 76.1046 316.602 78.6718C319.119 76.1046 321.891 73.7826 324.874 71.7458C321.461 69.7291 318.288 67.5072 315.411 65.1101Z" fill="#E2D45C"/>
<path d="M59.0768 156.274L73.1639 131.573C67.9394 132.168 62.7599 132.779 57.6255 133.415L38.0536 164.581H74.2148L78.5436 156.274H59.0768V156.274Z" fill="url(#paint3_linear_307_2008)"/>
<path d="M160.079 123.851C154.484 124.216 148.924 124.606 143.4 125.022L147.974 127.734L163.002 135.496L165.774 126.983L160.079 123.851V123.851ZM142.764 148.517L129.623 182.787H102.434L125.184 130.201L119.709 126.928C117.047 127.159 114.39 127.394 111.747 127.639L85.3195 181.561L100.923 193.131H144.205L162.191 137.973L142.764 148.517V148.517Z" fill="url(#paint4_linear_307_2008)"/>
<path d="M230.266 120.423L221.623 124.186H201.881L192.603 164.581H175.524L187.689 122.219C201.691 121.484 215.888 120.883 230.266 120.423Z" fill="url(#paint5_linear_307_2008)"/>
<path d="M313.476 164.581H274.037L254.14 153.937L257.398 119.713C262.277 119.613 267.171 119.532 272.085 119.467L270.704 156.274H296.111L295.691 119.272C297.938 119.267 300.19 119.262 302.447 119.262C305.089 119.262 307.726 119.267 310.353 119.277L313.476 164.581V164.581Z" fill="url(#paint6_linear_307_2008)"/>
<path d="M395.783 164.581H378.678L369.99 124.186H346.045L352.755 164.581H335.535L330.636 119.437C345.289 119.617 359.786 119.942 374.109 120.403L368.399 123.436L386.675 131.172L395.783 164.581V164.581Z" fill="url(#paint7_linear_307_2008)"/>
<path d="M429.598 122.905C424.704 122.62 419.784 122.349 414.84 122.099L429.278 164.581H446.162L429.598 122.905Z" fill="url(#paint8_linear_307_2008)"/>
<path d="M517.429 130.017C512.41 129.491 507.355 128.981 502.261 128.49L518.114 156.274H491.867L478.886 131.378L462.356 125.082C461.986 125.052 461.621 125.027 461.25 125.002L474.387 153.312L501.745 164.582H539.138L517.429 130.017V130.017Z" fill="url(#paint9_linear_307_2008)"/>
<path fill-rule="evenodd" clip-rule="evenodd" d="M239.198 234.923V228.748L222.138 235.093H222.103V241.429H222.138L239.198 247.774V241.589L230.455 238.246L239.198 234.923V234.923Z" fill="#996DFF"/>
<path fill-rule="evenodd" clip-rule="evenodd" d="M338.014 247.454V241.279L346.751 237.956L338.014 234.633V228.458L355.049 234.798H355.089V241.139H355.049L338.014 247.449V247.454ZM330.698 219.735L320.679 251.893H326.629L336.648 219.735H330.698Z" fill="#996DFF"/>
<path fill-rule="evenodd" clip-rule="evenodd" d="M264.265 227.582C265.957 229.443 266.847 231.895 266.742 234.408V248.104H260.792V235.664C260.862 234.277 260.417 232.916 259.551 231.835C258.725 230.874 257.504 230.344 256.238 230.399C252.515 230.399 250.648 232.981 250.648 238.151V248.109H244.698V225.62H250.648V227.652C252.535 225.815 255.097 224.839 257.73 224.949C260.182 224.844 262.564 225.805 264.26 227.582H264.265Z" fill="white"/>
<path fill-rule="evenodd" clip-rule="evenodd" d="M274.314 216.267V248.425H280.264V216.267H274.314Z" fill="white"/>
<path fill-rule="evenodd" clip-rule="evenodd" d="M313.882 247.249H308.918L304.053 234.002L299.144 247.249H294.19L285.853 224.719H292.208L296.892 238.191L301.721 224.719H306.36L311.19 238.236L315.874 224.719H322.229L313.882 247.249V247.249Z" fill="white"/>
<path d="M24.2567 52.5057C30.9925 36.2366 44.5943 23.4156 64.6716 14.4028C83.9082 5.76531 108.284 0.961161 137.114 0.130443C196.215 -1.57603 267.562 13.547 337.998 42.7273C343.062 44.8241 348.081 46.9759 353.046 49.1828L346.025 49.2028C343.012 47.8967 339.974 46.6106 336.912 45.3445C192.602 -14.4271 53.517 -10.7289 26.874 53.5916C19.1573 72.2177 21.7045 93.9115 32.724 116.791C59.7423 172.93 137.745 236.189 240.273 278.656C250.192 282.765 260.12 286.588 270.034 290.126C330.181 311.605 389.587 322.489 439.991 321.033C468.45 320.212 492.456 315.493 511.353 307.011C530.754 298.303 543.861 285.987 550.311 270.409C556.131 256.352 556.111 240.548 551.012 223.804L553.189 221.347C559.164 239.803 559.084 256.652 552.934 271.495C546.193 287.764 532.596 300.585 512.514 309.598C493.277 318.235 468.906 323.039 440.076 323.87C437.063 323.955 434.021 324 430.948 324C380.139 324 321.123 312.155 261.747 290.126C254.225 287.339 246.704 284.386 239.187 281.273C168.752 252.098 107.609 212.349 67.0236 169.347C51.0648 152.437 38.9744 135.753 30.9625 119.594C29.0308 115.705 27.3394 111.852 25.8881 108.034C18.0663 87.4609 17.5159 68.7798 24.2567 52.5057V52.5057Z" fill="url(#paint10_linear_307_2008)"/>
<path d="M24.2567 52.5057C30.9925 36.2366 44.5943 23.4156 64.6716 14.4028C83.9082 5.76531 108.284 0.961161 137.114 0.130443C196.215 -1.57603 267.562 13.547 337.998 42.7273C343.062 44.8241 348.081 46.9759 353.046 49.1828L346.025 49.2028C343.012 47.8967 339.974 46.6106 336.912 45.3445C192.602 -14.4271 53.517 -10.7289 26.874 53.5916C19.1573 72.2177 21.7045 93.9115 32.724 116.791C59.7423 172.93 137.745 236.189 240.273 278.656C250.192 282.765 260.12 286.588 270.034 290.126C330.181 311.605 389.587 322.489 439.991 321.033C468.45 320.212 492.456 315.493 511.353 307.011C530.754 298.303 543.861 285.987 550.311 270.409C556.131 256.352 556.111 240.548 551.012 223.804L553.189 221.347C559.164 239.803 559.084 256.652 552.934 271.495C546.193 287.764 532.596 300.585 512.514 309.598C493.277 318.235 468.906 323.039 440.076 323.87C437.063 323.955 434.021 324 430.948 324C380.139 324 321.123 312.155 261.747 290.126C254.225 287.339 246.704 284.386 239.187 281.273C168.752 252.098 107.609 212.349 67.0236 169.347C51.0648 152.437 38.9744 135.753 30.9625 119.594C29.0308 115.705 27.3394 111.852 25.8881 108.034C18.0663 87.4609 17.5159 68.7798 24.2567 52.5057V52.5057Z" fill="url(#paint11_radial_307_2008)"/>
<path d="M24.2567 52.5057C30.9925 36.2366 44.5943 23.4156 64.6716 14.4028C83.9082 5.76531 108.284 0.961161 137.114 0.130443C196.215 -1.57603 267.562 13.547 337.998 42.7273C343.062 44.8241 348.081 46.9759 353.046 49.1828L346.025 49.2028C343.012 47.8967 339.974 46.6106 336.912 45.3445C192.602 -14.4271 53.517 -10.7289 26.874 53.5916C19.1573 72.2177 21.7045 93.9115 32.724 116.791C59.7423 172.93 137.745 236.189 240.273 278.656C250.192 282.765 260.12 286.588 270.034 290.126C330.181 311.605 389.587 322.489 439.991 321.033C468.45 320.212 492.456 315.493 511.353 307.011C530.754 298.303 543.861 285.987 550.311 270.409C556.131 256.352 556.111 240.548 551.012 223.804L553.189 221.347C559.164 239.803 559.084 256.652 552.934 271.495C546.193 287.764 532.596 300.585 512.514 309.598C493.277 318.235 468.906 323.039 440.076 323.87C437.063 323.955 434.021 324 430.948 324C380.139 324 321.123 312.155 261.747 290.126C254.225 287.339 246.704 284.386 239.187 281.273C168.752 252.098 107.609 212.349 67.0236 169.347C51.0648 152.437 38.9744 135.753 30.9625 119.594C29.0308 115.705 27.3394 111.852 25.8881 108.034C18.0663 87.4609 17.5159 68.7798 24.2567 52.5057V52.5057Z" fill="url(#paint12_radial_307_2008)"/>
<path d="M24.2567 52.5057C30.9925 36.2366 44.5943 23.4156 64.6716 14.4028C83.9082 5.76531 108.284 0.961161 137.114 0.130443C196.215 -1.57603 267.562 13.547 337.998 42.7273C343.062 44.8241 348.081 46.9759 353.046 49.1828L346.025 49.2028C343.012 47.8967 339.974 46.6106 336.912 45.3445C192.602 -14.4271 53.517 -10.7289 26.874 53.5916C19.1573 72.2177 21.7045 93.9115 32.724 116.791C59.7423 172.93 137.745 236.189 240.273 278.656C250.192 282.765 260.12 286.588 270.034 290.126C330.181 311.605 389.587 322.489 439.991 321.033C468.45 320.212 492.456 315.493 511.353 307.011C530.754 298.303 543.861 285.987 550.311 270.409C556.131 256.352 556.111 240.548 551.012 223.804L553.189 221.347C559.164 239.803 559.084 256.652 552.934 271.495C546.193 287.764 532.596 300.585 512.514 309.598C493.277 318.235 468.906 323.039 440.076 323.87C437.063 323.955 434.021 324 430.948 324C380.139 324 321.123 312.155 261.747 290.126C254.225 287.339 246.704 284.386 239.187 281.273C168.752 252.098 107.609 212.349 67.0236 169.347C51.0648 152.437 38.9744 135.753 30.9625 119.594C29.0308 115.705 27.3394 111.852 25.8881 108.034C18.0663 87.4609 17.5159 68.7798 24.2567 52.5057V52.5057Z" fill="url(#paint13_radial_307_2008)"/>
<path d="M552.933 52.5057C546.197 36.2366 532.596 23.4156 512.518 14.4028C493.282 5.76531 468.905 0.961161 440.076 0.130443C380.975 -1.57603 309.628 13.547 239.192 42.7273C234.128 44.8241 229.108 46.9759 224.144 49.1828L231.165 49.2028C234.178 47.8967 237.215 46.6106 240.278 45.3445C384.588 -14.4271 523.673 -10.7289 550.316 53.5916C558.033 72.2177 555.485 93.9115 544.466 116.791C517.447 172.93 439.445 236.189 336.916 278.656C326.998 282.765 317.069 286.588 307.156 290.126C247.009 311.605 187.602 322.489 137.199 321.033C108.739 320.212 84.7336 315.493 65.8372 307.011C46.4355 298.303 33.3292 285.987 26.8786 270.409C21.0585 256.352 21.0786 240.548 26.178 223.804L24.0011 221.347C18.0259 239.803 18.106 256.652 24.2563 271.495C30.9971 287.764 44.5939 300.585 64.6762 309.598C83.9129 318.235 108.284 323.039 137.114 323.87C140.126 323.955 143.169 324 146.242 324C197.051 324 256.067 312.155 315.443 290.126C322.964 287.339 330.486 284.386 338.002 281.273C408.438 252.098 469.581 212.349 510.166 169.347C526.125 152.437 538.215 135.753 546.227 119.594C548.159 115.705 549.85 111.852 551.302 108.034C559.123 87.4609 559.674 68.7798 552.933 52.5057V52.5057Z" fill="url(#paint14_linear_307_2008)"/>
<path d="M552.933 52.5057C546.197 36.2366 532.596 23.4156 512.518 14.4028C493.282 5.76531 468.905 0.961161 440.076 0.130443C380.975 -1.57603 309.628 13.547 239.192 42.7273C234.128 44.8241 229.108 46.9759 224.144 49.1828L231.165 49.2028C234.178 47.8967 237.215 46.6106 240.278 45.3445C384.588 -14.4271 523.673 -10.7289 550.316 53.5916C558.033 72.2177 555.485 93.9115 544.466 116.791C517.447 172.93 439.445 236.189 336.916 278.656C326.998 282.765 317.069 286.588 307.156 290.126C247.009 311.605 187.602 322.489 137.199 321.033C108.739 320.212 84.7336 315.493 65.8372 307.011C46.4355 298.303 33.3292 285.987 26.8786 270.409C21.0585 256.352 21.0786 240.548 26.178 223.804L24.0011 221.347C18.0259 239.803 18.106 256.652 24.2563 271.495C30.9971 287.764 44.5939 300.585 64.6762 309.598C83.9129 318.235 108.284 323.039 137.114 323.87C140.126 323.955 143.169 324 146.242 324C197.051 324 256.067 312.155 315.443 290.126C322.964 287.339 330.486 284.386 338.002 281.273C408.438 252.098 469.581 212.349 510.166 169.347C526.125 152.437 538.215 135.753 546.227 119.594C548.159 115.705 549.85 111.852 551.302 108.034C559.123 87.4609 559.674 68.7798 552.933 52.5057V52.5057Z" fill="url(#paint15_radial_307_2008)"/>
<path d="M552.933 52.5057C546.197 36.2366 532.596 23.4156 512.518 14.4028C493.282 5.76531 468.905 0.961161 440.076 0.130443C380.975 -1.57603 309.628 13.547 239.192 42.7273C234.128 44.8241 229.108 46.9759 224.144 49.1828L231.165 49.2028C234.178 47.8967 237.215 46.6106 240.278 45.3445C384.588 -14.4271 523.673 -10.7289 550.316 53.5916C558.033 72.2177 555.485 93.9115 544.466 116.791C517.447 172.93 439.445 236.189 336.916 278.656C326.998 282.765 317.069 286.588 307.156 290.126C247.009 311.605 187.602 322.489 137.199 321.033C108.739 320.212 84.7336 315.493 65.8372 307.011C46.4355 298.303 33.3292 285.987 26.8786 270.409C21.0585 256.352 21.0786 240.548 26.178 223.804L24.0011 221.347C18.0259 239.803 18.106 256.652 24.2563 271.495C30.9971 287.764 44.5939 300.585 64.6762 309.598C83.9129 318.235 108.284 323.039 137.114 323.87C140.126 323.955 143.169 324 146.242 324C197.051 324 256.067 312.155 315.443 290.126C322.964 287.339 330.486 284.386 338.002 281.273C408.438 252.098 469.581 212.349 510.166 169.347C526.125 152.437 538.215 135.753 546.227 119.594C548.159 115.705 549.85 111.852 551.302 108.034C559.123 87.4609 559.674 68.7798 552.933 52.5057V52.5057Z" fill="url(#paint16_radial_307_2008)"/>
</g>
</g>
<defs>
<linearGradient id="paint0_linear_307_2008" x1="288.499" y1="151.381" x2="288.499" y2="274.487" gradientUnits="userSpaceOnUse">
<stop stop-color="#D9D9D9"/>
<stop offset="1" stop-color="#D9D9D9" stop-opacity="0"/>
</linearGradient>
<linearGradient id="paint1_linear_307_2008" x1="0" y1="162" x2="577.194" y2="162" gradientUnits="userSpaceOnUse">
<stop stop-color="#996DFF"/>
<stop offset="0.5" stop-color="#35E8B3"/>
<stop offset="1" stop-color="#E2D45C"/>
</linearGradient>
<linearGradient id="paint2_linear_307_2008" x1="288.594" y1="186.121" x2="288.594" y2="275.738" gradientUnits="userSpaceOnUse">
<stop stop-color="#28203E"/>
<stop offset="1" stop-color="#121214" stop-opacity="0"/>
</linearGradient>
<linearGradient id="paint3_linear_307_2008" x1="58.3011" y1="123.556" x2="58.3011" y2="158.872" gradientUnits="userSpaceOnUse">
<stop stop-color="#A9A9AD"/>
<stop offset="1" stop-color="#A9A9AD" stop-opacity="0"/>
</linearGradient>
<linearGradient id="paint4_linear_307_2008" x1="125.549" y1="123.555" x2="125.549" y2="158.871" gradientUnits="userSpaceOnUse">
<stop stop-color="#A9A9AD"/>
<stop offset="1" stop-color="#A9A9AD" stop-opacity="0"/>
</linearGradient>
<linearGradient id="paint5_linear_307_2008" x1="202.897" y1="123.555" x2="202.897" y2="158.871" gradientUnits="userSpaceOnUse">
<stop stop-color="#A9A9AD"/>
<stop offset="1" stop-color="#A9A9AD" stop-opacity="0"/>
</linearGradient>
<linearGradient id="paint6_linear_307_2008" x1="283.81" y1="123.556" x2="283.81" y2="158.871" gradientUnits="userSpaceOnUse">
<stop stop-color="#A9A9AD"/>
<stop offset="1" stop-color="#A9A9AD" stop-opacity="0"/>
</linearGradient>
<linearGradient id="paint7_linear_307_2008" x1="363.209" y1="123.556" x2="363.209" y2="158.871" gradientUnits="userSpaceOnUse">
<stop stop-color="#A9A9AD"/>
<stop offset="1" stop-color="#A9A9AD" stop-opacity="0"/>
</linearGradient>
<linearGradient id="paint8_linear_307_2008" x1="430.504" y1="123.555" x2="430.504" y2="158.871" gradientUnits="userSpaceOnUse">
<stop stop-color="#A9A9AD"/>
<stop offset="1" stop-color="#A9A9AD" stop-opacity="0"/>
</linearGradient>
<linearGradient id="paint9_linear_307_2008" x1="500.194" y1="123.556" x2="500.194" y2="158.872" gradientUnits="userSpaceOnUse">
<stop stop-color="#A9A9AD"/>
<stop offset="1" stop-color="#A9A9AD" stop-opacity="0"/>
</linearGradient>
<linearGradient id="paint10_linear_307_2008" x1="523.703" y1="231.951" x2="133.866" y2="233.952" gradientUnits="userSpaceOnUse">
<stop stop-color="#996DFF"/>
<stop offset="0.5" stop-color="#35E8B3"/>
<stop offset="1" stop-color="#E2D45C"/>
</linearGradient>
<radialGradient id="paint11_radial_307_2008" cx="0" cy="0" r="1" gradientUnits="userSpaceOnUse" gradientTransform="translate(285.035 296.08) rotate(15.7611) scale(262.057 435.167)">
<stop stop-color="#171226"/>
<stop offset="1" stop-color="#171226" stop-opacity="0"/>
</radialGradient>
<radialGradient id="paint12_radial_307_2008" cx="0" cy="0" r="1" gradientUnits="userSpaceOnUse" gradientTransform="translate(352.228 50.6253) rotate(-157.036) scale(58.981 97.9427)">
<stop stop-color="#261945"/>
<stop offset="1" stop-color="#261945" stop-opacity="0"/>
</radialGradient>
<radialGradient id="paint13_radial_307_2008" cx="0" cy="0" r="1" gradientUnits="userSpaceOnUse" gradientTransform="translate(553.808 217.228) rotate(76.7293) scale(66.83 110.977)">
<stop stop-color="#191326"/>
<stop offset="1" stop-color="#191326" stop-opacity="0"/>
</radialGradient>
<linearGradient id="paint14_linear_307_2008" x1="303.443" y1="35.898" x2="390.58" y2="256.807" gradientUnits="userSpaceOnUse">
<stop stop-color="#996DFF"/>
<stop offset="0.5" stop-color="#35E8B3"/>
<stop offset="1" stop-color="#E2D45C"/>
</linearGradient>
<radialGradient id="paint15_radial_307_2008" cx="0" cy="0" r="1" gradientUnits="userSpaceOnUse" gradientTransform="translate(218.761 55.5344) rotate(-19.3523) scale(133.329 221.403)">
<stop stop-color="#171225"/>
<stop offset="1" stop-color="#171225" stop-opacity="0"/>
</radialGradient>
<radialGradient id="paint16_radial_307_2008" cx="0" cy="0" r="1" gradientUnits="userSpaceOnUse" gradientTransform="translate(24.2388 220.296) rotate(67.4706) scale(89.6854 148.93)">
<stop stop-color="#191327"/>
<stop offset="1" stop-color="#191327" stop-opacity="0"/>
</radialGradient>
<clipPath id="clip0_307_2008">
<rect width="577.194" height="324" fill="white"/>
</clipPath>
</defs>
</svg>
